<?xml version="1.0" encoding="UTF-8" standalone="no"?> <svg xmlns="http://www.w3.org/2000/svg" xmlns:xlink="http://www.w3.org/1999/xlink" viewBox="0 0 64 64"><defs><style>.cls-1{fill:url(#linear-gradient);}</style><linearGradient id="linear-gradient" x1="3" y1="32" x2="61" y2="32" gradientUnits="userSpaceOnUse"><stop offset="0" stop-color="#17a6d7"/><stop offset="1" stop-color="#9d31fe"/></linearGradient></defs><g id="Layer_18" data-name="Layer 18"><path class="cls-1" d="M56,15H47.29V8a1,1,0,0,0-1-1H17.71a1,1,0,0,0-1,1v7H8a5,5,0,0,0-5,5V52a5,5,0,0,0,5,5H56a5,5,0,0,0,5-5V20A5,5,0,0,0,56,15ZM18.71,9H45.29v6H18.71ZM56,17a2.93,2.93,0,0,1,1.79.61l-10.16,16A3,3,0,0,1,45.09,35H37V30.43a1,1,0,0,0-1-1H28a1,1,0,0,0-1,1V35H18.91a3,3,0,0,1-2.54-1.39l-10.16-16A2.93,2.93,0,0,1,8,17ZM35,31.43v9.14H29V31.43ZM59,52a3,3,0,0,1-3,3H8a3,3,0,0,1-3-3V20a2.52,2.52,0,0,1,0-.48l9.64,15.17A5,5,0,0,0,18.91,37H27v4.57a1,1,0,0,0,1,1h8a1,1,0,0,0,1-1V37h8.09a5,5,0,0,0,4.22-2.31L59,19.52A2.52,2.52,0,0,1,59,20Z"/></g></svg>