<?xml version="1.0" encoding="UTF-8" standalone="no"?> <svg width="512" height="512" viewBox="0 0 512 512" fill="none" xmlns="http://www.w3.org/2000/svg">
<path d="M36 448H476C481.302 447.994 486.386 445.885 490.135 442.135C493.885 438.386 495.994 433.302 496 428V84C495.994 78.6975 493.885 73.614 490.135 69.8646C486.386 66.1152 481.302 64.0061 476 64H36C30.6975 64.0061 25.614 66.1152 21.8646 69.8646C18.1152 73.614 16.0061 78.6975 16 84V428C16.0061 433.302 18.1152 438.386 21.8646 442.135C25.614 445.885 30.6975 447.994 36 448V448ZM89.376 328C91.2632 333.338 94.9766 337.836 99.8598 340.701C104.743 343.566 110.482 344.612 116.062 343.654C121.642 342.697 126.704 339.798 130.353 335.469C134.002 331.141 136.003 325.661 136.003 320C136.003 314.339 134.002 308.859 130.353 304.531C126.704 300.202 121.642 297.303 116.062 296.346C110.482 295.388 104.743 296.434 99.8598 299.299C94.9766 302.164 91.2632 306.662 89.376 312H32V248H89.376C91.2632 253.338 94.9766 257.836 99.8598 260.701C104.743 263.566 110.482 264.612 116.062 263.654C121.642 262.697 126.704 259.798 130.353 255.469C134.002 251.141 136.003 245.661 136.003 240C136.003 234.339 134.002 228.859 130.353 224.531C126.704 220.202 121.642 217.303 116.062 216.346C110.482 215.388 104.743 216.434 99.8598 219.299C94.9766 222.164 91.2632 226.662 89.376 232H32V184H133.194L153.337 200.115C151.881 204.286 151.608 208.779 152.549 213.096C153.489 217.413 155.606 221.386 158.666 224.573C149.055 241.465 144.001 260.566 144.001 280.001C144.001 299.436 149.055 318.537 158.666 335.429C155.607 338.616 153.49 342.589 152.55 346.905C151.61 351.222 151.883 355.714 153.339 359.885L133.194 376H32V328H89.376ZM104 320C104 318.418 104.469 316.871 105.348 315.555C106.227 314.24 107.477 313.214 108.939 312.609C110.4 312.003 112.009 311.845 113.561 312.154C115.113 312.462 116.538 313.224 117.657 314.343C118.776 315.462 119.538 316.887 119.846 318.439C120.155 319.991 119.997 321.6 119.391 323.061C118.786 324.523 117.76 325.773 116.445 326.652C115.129 327.531 113.582 328 112 328C109.879 327.998 107.846 327.154 106.346 325.654C104.846 324.154 104.002 322.121 104 320V320ZM104 240C104 238.418 104.469 236.871 105.348 235.555C106.227 234.24 107.477 233.214 108.939 232.609C110.4 232.003 112.009 231.845 113.561 232.154C115.113 232.462 116.538 233.224 117.657 234.343C118.776 235.462 119.538 236.887 119.846 238.439C120.155 239.991 119.997 241.6 119.391 243.061C118.786 244.523 117.76 245.773 116.445 246.652C115.129 247.531 113.582 248 112 248C109.879 247.998 107.846 247.154 106.346 245.654C104.846 244.154 104.002 242.121 104 240V240ZM184 208C184 209.582 183.531 211.129 182.652 212.445C181.773 213.76 180.523 214.786 179.061 215.391C177.6 215.997 175.991 216.155 174.439 215.846C172.887 215.538 171.462 214.776 170.343 213.657C169.224 212.538 168.462 211.113 168.154 209.561C167.845 208.009 168.003 206.4 168.609 204.939C169.214 203.477 170.24 202.227 171.555 201.348C172.871 200.469 174.418 200 176 200C178.121 200.002 180.154 200.846 181.654 202.346C183.154 203.846 183.998 205.879 184 208ZM168 352C168 350.418 168.469 348.871 169.348 347.555C170.227 346.24 171.477 345.214 172.939 344.609C174.4 344.003 176.009 343.845 177.561 344.154C179.113 344.462 180.538 345.224 181.657 346.343C182.776 347.462 183.538 348.887 183.846 350.439C184.155 351.991 183.997 353.6 183.391 355.061C182.786 356.523 181.76 357.773 180.445 358.652C179.129 359.531 177.582 360 176 360C173.879 359.998 171.846 359.154 170.346 357.654C168.846 356.154 168.002 354.121 168 352ZM176 328C174.987 328.003 173.975 328.07 172.971 328.2C164.474 313.558 159.998 296.929 159.998 280C159.998 263.071 164.474 246.442 172.971 231.8C176.815 232.293 180.721 231.847 184.355 230.499C187.989 229.152 191.242 226.944 193.836 224.065C196.43 221.185 198.287 217.72 199.249 213.966C200.211 210.211 200.248 206.28 199.358 202.508C215.803 190.498 235.636 184.017 256 184C276.377 183.931 296.235 190.417 312.643 202.5C311.747 206.273 311.781 210.207 312.74 213.965C313.7 217.722 315.557 221.19 318.152 224.072C320.747 226.953 324.003 229.162 327.64 230.508C331.277 231.854 335.186 232.297 339.032 231.8C347.528 246.443 352.002 263.072 352.001 280.001C352 296.93 347.524 313.558 339.026 328.2C335.182 327.708 331.276 328.154 327.642 329.501C324.009 330.849 320.756 333.057 318.162 335.936C315.569 338.816 313.711 342.281 312.75 346.035C311.788 349.789 311.751 353.72 312.641 357.492C296.205 369.519 276.367 376.002 256 376.002C235.633 376.002 215.795 369.519 199.359 357.492C200.191 353.969 200.214 350.304 199.428 346.771C198.641 343.238 197.065 339.929 194.818 337.092C192.571 334.255 189.711 331.963 186.452 330.388C183.193 328.814 179.619 327.997 176 328ZM344 208C344 209.582 343.531 211.129 342.652 212.445C341.773 213.76 340.523 214.786 339.061 215.391C337.6 215.997 335.991 216.155 334.439 215.846C332.887 215.538 331.462 214.776 330.343 213.657C329.224 212.538 328.462 211.113 328.154 209.561C327.845 208.009 328.003 206.4 328.609 204.939C329.214 203.477 330.24 202.227 331.555 201.348C332.871 200.469 334.418 200 336 200C338.121 200.002 340.154 200.846 341.654 202.346C343.154 203.846 343.998 205.879 344 208ZM328 352C328 350.418 328.469 348.871 329.348 347.555C330.227 346.24 331.477 345.214 332.939 344.609C334.4 344.003 336.009 343.845 337.561 344.154C339.113 344.462 340.538 345.224 341.657 346.343C342.776 347.462 343.538 348.887 343.846 350.439C344.155 351.991 343.997 353.6 343.391 355.061C342.786 356.523 341.76 357.773 340.445 358.652C339.129 359.531 337.582 360 336 360C333.879 359.998 331.846 359.154 330.346 357.654C328.846 356.154 328.002 354.121 328 352ZM353.334 335.427C362.947 318.537 368.001 299.437 368 280.003C367.999 260.569 362.943 241.469 353.328 224.58C356.39 221.392 358.509 217.419 359.45 213.101C360.392 208.783 360.12 204.288 358.663 200.115L378.806 184H480V232H422.624C420.737 226.662 417.023 222.164 412.14 219.299C407.257 216.434 401.518 215.388 395.938 216.346C390.358 217.303 385.296 220.202 381.647 224.531C377.998 228.859 375.997 234.339 375.997 240C375.997 245.661 377.998 251.141 381.647 255.469C385.296 259.798 390.358 262.697 395.938 263.654C401.518 264.612 407.257 263.566 412.14 260.701C417.023 257.836 420.737 253.338 422.624 248H480V312H422.624C420.737 306.662 417.023 302.164 412.14 299.299C407.257 296.434 401.518 295.388 395.938 296.346C390.358 297.303 385.296 300.202 381.647 304.531C377.998 308.859 375.997 314.339 375.997 320C375.997 325.661 377.998 331.141 381.647 335.469C385.296 339.798 390.358 342.697 395.938 343.654C401.518 344.612 407.257 343.566 412.14 340.701C417.023 337.836 420.737 333.338 422.624 328H480V376H378.806L358.663 359.885C360.119 355.714 360.392 351.221 359.451 346.904C358.511 342.587 356.394 338.614 353.334 335.427ZM408 240C408 241.582 407.531 243.129 406.652 244.445C405.773 245.76 404.523 246.786 403.061 247.391C401.6 247.997 399.991 248.155 398.439 247.846C396.887 247.538 395.462 246.776 394.343 245.657C393.224 244.538 392.462 243.113 392.154 241.561C391.845 240.009 392.003 238.4 392.609 236.939C393.214 235.477 394.24 234.227 395.555 233.348C396.871 232.469 398.418 232 400 232C402.121 232.002 404.154 232.846 405.654 234.346C407.154 235.846 407.998 237.879 408 240V240ZM408 320C408 321.582 407.531 323.129 406.652 324.445C405.773 325.76 404.523 326.786 403.061 327.391C401.6 327.997 399.991 328.155 398.439 327.846C396.887 327.538 395.462 326.776 394.343 325.657C393.224 324.538 392.462 323.113 392.154 321.561C391.845 320.009 392.003 318.4 392.609 316.939C393.214 315.477 394.24 314.227 395.555 313.348C396.871 312.469 398.418 312 400 312C402.121 312.002 404.154 312.846 405.654 314.346C407.154 315.846 407.998 317.879 408 320V320ZM480 168H376C374.183 167.999 372.419 168.618 371 169.753L348.66 187.625C344.508 185.036 339.662 183.782 334.776 184.032C329.889 184.283 325.197 186.025 321.331 189.025C302.328 175.279 279.453 167.918 256 168C232.567 168.023 209.729 175.38 190.69 189.041C186.824 186.034 182.128 184.285 177.237 184.032C172.345 183.779 167.494 185.033 163.338 187.625L141 169.753C139.581 168.618 137.817 167.999 136 168H32V128H480V168ZM476 432H36C34.9391 432 33.9217 431.579 33.1716 430.828C32.4214 430.078 32 429.061 32 428V392H136C137.817 392.001 139.581 391.382 141 390.247L163.34 372.375C167.496 374.967 172.347 376.221 177.239 375.968C182.13 375.715 186.826 373.966 190.692 370.959C209.721 384.64 232.566 392 256.003 392C279.439 392 302.284 384.64 321.313 370.959C325.179 373.966 329.875 375.715 334.766 375.968C339.657 376.221 344.508 374.967 348.664 372.375L371 390.247C372.419 391.382 374.183 392.001 376 392H480V428C480 429.061 479.579 430.078 478.828 430.828C478.078 431.579 477.061 432 476 432ZM32 84C32 82.9391 32.4214 81.9217 33.1716 81.1716C33.9217 80.4214 34.9391 80 36 80H476C477.061 80 478.078 80.4214 478.828 81.1716C479.579 81.9217 480 82.9391 480 84V112H32V84ZM464 96C464 97.5823 463.531 99.129 462.652 100.445C461.773 101.76 460.523 102.786 459.061 103.391C457.6 103.997 455.991 104.155 454.439 103.846C452.887 103.538 451.462 102.776 450.343 101.657C449.224 100.538 448.462 99.1126 448.154 97.5607C447.845 96.0089 448.003 94.4003 448.609 92.9385C449.214 91.4767 450.24 90.2273 451.555 89.3482C452.871 88.4692 454.418 88 456 88C458.122 88 460.157 88.8429 461.657 90.3431C463.157 91.8434 464 93.8783 464 96ZM432 96C432 97.5823 431.531 99.129 430.652 100.445C429.773 101.76 428.523 102.786 427.061 103.391C425.6 103.997 423.991 104.155 422.439 103.846C420.887 103.538 419.462 102.776 418.343 101.657C417.224 100.538 416.462 99.1126 416.154 97.5607C415.845 96.0089 416.003 94.4003 416.609 92.9385C417.214 91.4767 418.24 90.2273 419.555 89.3482C420.871 88.4692 422.418 88 424 88C426.122 88 428.157 88.8429 429.657 90.3431C431.157 91.8434 432 93.8783 432 96ZM400 96C400 97.5823 399.531 99.129 398.652 100.445C397.773 101.76 396.523 102.786 395.061 103.391C393.6 103.997 391.991 104.155 390.439 103.846C388.887 103.538 387.462 102.776 386.343 101.657C385.224 100.538 384.462 99.1126 384.154 97.5607C383.845 96.0089 384.003 94.4003 384.609 92.9385C385.214 91.4767 386.24 90.2273 387.555 89.3482C388.871 88.4692 390.418 88 392 88C394.122 88 396.157 88.8429 397.657 90.3431C399.157 91.8434 400 93.8783 400 96ZM336 280C336 264.177 331.308 248.71 322.518 235.554C313.727 222.398 301.233 212.145 286.615 206.09C271.997 200.035 255.911 198.45 240.393 201.537C224.874 204.624 210.62 212.243 199.431 223.431C188.243 234.62 180.624 248.874 177.537 264.393C174.45 279.911 176.035 295.997 182.09 310.615C188.145 325.233 198.398 337.727 211.554 346.518C224.71 355.308 240.177 360 256 360C277.21 359.976 297.544 351.54 312.542 336.542C327.54 321.544 335.976 301.21 336 280V280ZM192 280C192 267.342 195.754 254.968 202.786 244.444C209.818 233.919 219.814 225.716 231.508 220.872C243.203 216.028 256.071 214.76 268.486 217.23C280.901 219.699 292.304 225.795 301.255 234.745C310.205 243.696 316.301 255.099 318.77 267.514C321.24 279.929 319.972 292.797 315.128 304.492C310.284 316.186 302.081 326.182 291.556 333.214C281.032 340.246 268.658 344 256 344C239.032 343.981 222.764 337.232 210.766 325.234C198.768 313.236 192.019 296.968 192 280V280ZM292 307.886C293.216 307.184 294.226 306.174 294.928 304.958C295.63 303.742 296 302.362 296 300.958V262.873C296 261.469 295.63 260.089 294.928 258.873C294.226 257.657 293.216 256.647 292 255.945L259.018 236.9C257.802 236.198 256.422 235.828 255.018 235.828C253.614 235.828 252.234 236.198 251.018 236.9L218.036 255.942C216.82 256.644 215.81 257.654 215.108 258.87C214.406 260.086 214.036 261.466 214.036 262.87V300.955C214.036 302.359 214.406 303.739 215.108 304.955C215.81 306.171 216.82 307.181 218.036 307.883L251.018 326.925C252.234 327.627 253.614 327.997 255.018 327.997C256.422 327.997 257.802 327.627 259.018 326.925L292 307.886ZM264 305.577V287.077L280 277.839V296.339L264 305.577ZM255.018 253.068L272.961 263.428L255.018 273.788L237.075 263.428L255.018 253.068ZM230.036 277.839L248 288.21V306.71L230.036 296.338V277.839Z" fill="url(#paint0_linear_16_75805)"/>
<defs>
<linearGradient id="paint0_linear_16_75805" x1="45.864" y1="466.136" x2="466.136" y2="45.864" gradientUnits="userSpaceOnUse">
<stop stop-color="#41DFD0"/>
<stop offset="1" stop-color="#EE83EF"/>
</linearGradient>
</defs>
</svg>
