<?xml version="1.0" encoding="UTF-8" standalone="no"?> <svg width="512" height="512" viewBox="0 0 512 512" fill="none" xmlns="http://www.w3.org/2000/svg">
<path d="M480 136H444.88L405.54 98.23C404.05 96.8004 402.065 96.0015 400 96H360V16C360 13.8783 359.157 11.8434 357.657 10.3431C356.156 8.84285 354.122 8 352 8H320C317.878 8 315.843 8.84285 314.343 10.3431C312.843 11.8434 312 13.8783 312 16V96H264V16C264 13.8783 263.157 11.8434 261.657 10.3431C260.156 8.84285 258.122 8 256 8C253.878 8 251.843 8.84285 250.343 10.3431C248.843 11.8434 248 13.8783 248 16V96H200V16C200 13.8783 199.157 11.8434 197.657 10.3431C196.156 8.84285 194.122 8 192 8H160C157.878 8 155.843 8.84285 154.343 10.3431C152.843 11.8434 152 13.8783 152 16V96H111.92C109.829 95.9925 107.816 96.7912 106.3 98.23L66.9598 136H31.8398C25.4746 136 19.3702 138.529 14.8693 143.029C10.3684 147.53 7.83984 153.635 7.83984 160C7.83984 166.365 10.3684 172.47 14.8693 176.971C19.3702 181.471 25.4746 184 31.8398 184H87.8398C89.9322 183.998 91.9413 183.18 93.4398 181.72L131.97 144H152V456H95.2298C84.5219 455.99 74.1187 459.564 65.6786 466.154C57.2385 472.744 51.2472 481.969 48.6598 492.36L48.2398 494.06C47.9451 495.239 47.9229 496.47 48.1751 497.66C48.4272 498.849 48.9471 499.965 49.6951 500.923C50.4432 501.881 51.3998 502.656 52.4922 503.189C53.5846 503.723 54.7842 504 55.9998 504H456C457.215 504 458.415 503.723 459.508 503.189C460.6 502.656 461.557 501.881 462.305 500.923C463.053 499.965 463.572 498.849 463.825 497.66C464.077 496.47 464.055 495.239 463.76 494.06L463.33 492.36C460.746 481.969 454.757 472.743 446.318 466.153C437.88 459.563 427.477 455.989 416.77 456H360V144H379.87L418.4 181.72C419.898 183.18 421.908 183.998 424 184H480C486.365 184 492.47 181.471 496.97 176.971C501.471 172.47 504 166.365 504 160C504 153.635 501.471 147.53 496.97 143.029C492.47 138.529 486.365 136 480 136ZM328 24H344V96H328V24ZM168 24H184V96H168V24ZM416.77 472C422.389 471.995 427.91 473.471 432.777 476.28C437.644 479.089 441.684 483.132 444.49 488H67.5098C70.3159 483.132 74.356 479.089 79.2227 476.28C84.0894 473.471 89.6106 471.995 95.2298 472H416.77ZM168 456V144H184V456H168ZM240 272C238.216 272 236.483 272.597 235.077 273.695C233.671 274.793 232.672 276.329 232.24 278.06L225.75 304H200V144H312V304H286.25L279.76 278.06C279.327 276.329 278.329 274.793 276.923 273.695C275.516 272.597 273.784 272 272 272H240ZM269.75 304H242.25L246.25 288H265.75L269.75 304ZM312 320V352H200V320H312ZM312 368V400H200V368H312ZM312 416V448H200V416H312ZM328 456V144H344V456H328ZM480 168H427.26L388.73 130.28C387.231 128.82 385.222 128.002 383.13 128H128.71C126.618 128.002 124.608 128.82 123.11 130.28L84.5798 168H31.8398C29.7181 168 27.6833 167.157 26.183 165.657C24.6827 164.157 23.8398 162.122 23.8398 160C23.8398 157.878 24.6827 155.843 26.183 154.343C27.6833 152.843 29.7181 152 31.8398 152H70.1798C72.2453 152 74.2307 151.201 75.7198 149.77L115.06 112H396.78L436.12 149.77C437.609 151.201 439.594 152 441.66 152H480C482.122 152 484.156 152.843 485.657 154.343C487.157 155.843 488 157.878 488 160C488 162.122 487.157 164.157 485.657 165.657C484.156 167.157 482.122 168 480 168Z" fill="url(#paint0_linear_1_3886)"/>
<path d="M256 440C260.418 440 264 436.418 264 432C264 427.582 260.418 424 256 424C251.582 424 248 427.582 248 432C248 436.418 251.582 440 256 440Z" fill="url(#paint1_linear_1_3886)"/>
<path d="M256 392C260.418 392 264 388.418 264 384C264 379.582 260.418 376 256 376C251.582 376 248 379.582 248 384C248 388.418 251.582 392 256 392Z" fill="url(#paint2_linear_1_3886)"/>
<path d="M256 344C260.418 344 264 340.418 264 336C264 331.582 260.418 328 256 328C251.582 328 248 331.582 248 336C248 340.418 251.582 344 256 344Z" fill="url(#paint3_linear_1_3886)"/>
<defs>
<linearGradient id="paint0_linear_1_3886" x1="33.0998" y1="527.516" x2="573.193" y2="-12.577" gradientUnits="userSpaceOnUse">
<stop stop-color="#003F8A"/>
<stop offset="0.518" stop-color="#00D7DF"/>
<stop offset="1" stop-color="#006DF0"/>
</linearGradient>
<linearGradient id="paint1_linear_1_3886" x1="1796.67" y1="9883.33" x2="10438.2" y2="1241.84" gradientUnits="userSpaceOnUse">
<stop stop-color="#003F8A"/>
<stop offset="0.518" stop-color="#00D7DF"/>
<stop offset="1" stop-color="#006DF0"/>
</linearGradient>
<linearGradient id="paint2_linear_1_3886" x1="1412.67" y1="9451.33" x2="10054.2" y2="809.84" gradientUnits="userSpaceOnUse">
<stop stop-color="#003F8A"/>
<stop offset="0.518" stop-color="#00D7DF"/>
<stop offset="1" stop-color="#006DF0"/>
</linearGradient>
<linearGradient id="paint3_linear_1_3886" x1="1028.67" y1="9019.33" x2="9670.16" y2="377.84" gradientUnits="userSpaceOnUse">
<stop stop-color="#003F8A"/>
<stop offset="0.518" stop-color="#00D7DF"/>
<stop offset="1" stop-color="#006DF0"/>
</linearGradient>
</defs>
</svg>
