<?xml version="1.0" encoding="UTF-8" standalone="no"?> <svg xmlns="http://www.w3.org/2000/svg" xmlns:xlink="http://www.w3.org/1999/xlink" viewBox="0 0 64 64"><defs><style>.cls-1{fill:url(#linear-gradient);}.cls-2{fill:url(#linear-gradient-2);}</style><linearGradient id="linear-gradient" x1="4.9" y1="32.01" x2="59.11" y2="32.01" gradientUnits="userSpaceOnUse"><stop offset="0" stop-color="#17a6d7"/><stop offset="1" stop-color="#9d31fe"/></linearGradient><linearGradient id="linear-gradient-2" x1="18.94" y1="32" x2="45.06" y2="32" xlink:href="#linear-gradient"/></defs><g id="Layer_5" data-name="Layer 5"><path class="cls-1" d="M59,6.83A2,2,0,0,0,57.17,5C22.8,3.33,3.33,23,5,57.17c.49,2.41,2.21,1.78,5.27,1.94C47.28,59.21,60.43,34.67,59,6.83ZM43.71,43.71C32.81,54.6,14.63,55.19,8.92,55.08,8.57,24.48,24.6,8.56,55.08,8.92,55.19,14.63,54.6,32.81,43.71,43.71Z"/><path class="cls-2" d="M41.78,25l1.77-1.76a2,2,0,0,0-2.83-2.83L39,22.22l-2.69-2.69a2,2,0,0,0-2.83,2.82L36.13,25,32,29.17l-2.69-2.69a2,2,0,0,0-2.83,2.83L29.17,32,25,36.13l-2.69-2.69a2,2,0,0,0-2.82,2.83L22.22,39l-1.77,1.76a2,2,0,0,0,2.83,2.83L25,41.78l2.69,2.69a2,2,0,1,0,2.83-2.82L27.87,39,32,34.83l2.69,2.69a2,2,0,1,0,2.83-2.83L34.83,32,39,27.87l2.69,2.69a2,2,0,1,0,2.82-2.83Z"/></g></svg>